<svg id="Layer_1" data-name="Layer 1" xmlns="http://www.w3.org/2000/svg" viewBox="0 0 5467.9 1263.96"><defs><style>.cls-1{fill:#4e4a49;}.cls-2{fill:#202c5e;}.cls-3{fill:#028c99;}.cls-4{fill:#003973;}</style></defs><title>logo</title><path class="cls-1" d="M769.7,1034.44H706l4.55-23.26H865.76l-4.55,23.26H797L760.09,1229.6H733.3Z" transform="translate(-9.53 -16.19)"/><path class="cls-1" d="M830.37,1229.6l44-230h26.8l-19.21,101.12h.51c13.15-19.21,32.36-31.35,56.12-31.35,17.7,0,38.93,11.12,38.93,42a155.28,155.28,0,0,1-2.53,26.8l-17.7,92h-26.8l17.7-90.5a127.42,127.42,0,0,0,2-21.74c0-14.66-6.57-25.78-24.27-25.78-20.73,0-47,24.27-53.59,59.66l-14.66,78.37h-27.3Z" transform="translate(-9.53 -16.19)"/><path class="cls-1" d="M1100.35,1220.5c-11.63,6.57-30.84,12.13-52.08,12.13-41.46,0-59.66-28.31-59.66-62.69,0-47.52,34.89-100.61,85.44-100.61,29.83,0,46,17.7,46,40.45,0,41-46.51,52.08-104.66,51.06-1.52,6.57-.51,21.23,3,29.83,6.07,14.16,18.71,21.23,34.89,21.23,18.71,0,32.36-6.07,42-11.12Zm-29.83-130.44c-25.78,0-45,24.77-51.06,49.55,42,.51,75.33-5.06,75.33-29.32C1094.79,1097.13,1085.18,1090.06,1070.52,1090.06Z" transform="translate(-9.53 -16.19)"/><path class="cls-1" d="M1206.53,1160.84l-34.89,69.27h-28.31l113.25-218.41h31.85l30.34,218.41H1291l-8.59-69.27Zm73.31-21.74-8.59-63.2c-1.52-11.12-3-27.3-4-40.45h-.51c-6.07,13.15-11.12,26.8-17.7,39.94l-32.86,63.7Z" transform="translate(-9.53 -16.19)"/><path class="cls-1" d="M1331.4,1229.6l30.34-157.24h26.8L1358.2,1229.6Zm34.89-200.72c0-10.62,8.09-18.2,17.7-18.2s15.67,7.08,15.67,16.68c-.51,10.62-7.58,18.2-18.2,18.2C1372.36,1045.56,1366.29,1038.49,1366.29,1028.88Z" transform="translate(-9.53 -16.19)"/><path class="cls-1" d="M1389,1229.6l19.21-101.12c4-20.22,6.57-41,8.09-55.61h23.76c-1.52,11.12-2.53,22.25-4,33.87h1c10.11-21.23,26.8-37.41,48-37.41,2,0,5.56.51,7.58.51l-5.06,26.8c-1.52-.51-4-.51-7.08-.51-23.26,0-44,28.31-51.06,64.71l-13.15,69.27H1389Z" transform="translate(-9.53 -16.19)"/><path class="cls-1" d="M1476.51,1229.6l44-230h26.8l-44,230Z" transform="translate(-9.53 -16.19)"/><path class="cls-1" d="M1534.14,1229.6l30.34-157.24h26.8l-30.34,157.24ZM1569,1028.88c0-10.62,8.09-18.2,17.7-18.2s15.67,7.08,15.67,16.68c-.51,10.62-7.58,18.2-18.2,18.2C1575.6,1045.56,1569,1038.49,1569,1028.88Z" transform="translate(-9.53 -16.19)"/><path class="cls-1" d="M1592.29,1229.6l21.23-111.23c3.54-17.7,5.56-32.86,7.58-45.5h23.76l-4,30.84h.51c14.16-22.25,34.89-34.38,58.14-34.38,18.71,0,39.94,10.62,39.94,44,0,6.57-1.52,16.68-3,25.28l-17.7,91.51h-26.8l17.19-90.5a88.55,88.55,0,0,0,2-20.22c0-15.67-6.07-27.81-24.77-27.81-19.21,0-46.51,23.26-53.59,61.68l-14.16,76.34Z" transform="translate(-9.53 -16.19)"/><path class="cls-1" d="M1862.27,1220.5c-11.63,6.57-30.84,12.13-52.08,12.13-41.46,0-59.66-28.31-59.66-62.69,0-47.52,34.89-100.61,85.44-100.61,29.83,0,46,17.7,46,40.45,0,41-46.51,52.08-104.66,51.06-1.52,6.57-.51,21.23,3,29.83,6.07,14.16,18.71,21.23,34.89,21.23,18.71,0,32.36-6.07,42-11.12Zm-29.83-130.44c-25.78,0-45,24.77-51.06,49.55,42,.51,75.33-5.06,75.33-29.32C1856.71,1097.13,1847.1,1090.06,1832.44,1090.06Z" transform="translate(-9.53 -16.19)"/><path class="cls-1" d="M2073.1,1134.55c0,48.54-34.38,98.59-87,98.59-39.44,0-61.18-29.32-61.18-64.71,0-51.57,35.9-99.6,87-99.6C2054.39,1069.33,2073.1,1101.18,2073.1,1134.55Zm-120.33,33.37c0,25.78,14.16,44,36.91,44,31.85,0,55.61-41,55.61-77.35,0-18.2-8.59-44-36.4-44C1975.52,1090.56,1952.77,1131.51,1952.77,1167.92Z" transform="translate(-9.53 -16.19)"/><path class="cls-1" d="M2070.06,1280.16l35.39-186.06h-20.73l4-21.23H2110l1.52-8.09c3.54-22.25,11.12-42,25.78-54.6,9.61-9.1,23.76-14.16,37.41-14.16,10.62,0,17.7,2,21.23,4l-6.07,21.23c-4-2-9.61-3-15.67-3-21.23,0-31.85,20.73-36.4,46.51l-1.52,7.58h34.89l-4,21.23h-34.89l-35.39,186.06h-26.8Z" transform="translate(-9.53 -16.19)"/><path class="cls-1" d="M2263.2,1011.18l-41.46,218.41h-26.8l41.46-218.41Z" transform="translate(-9.53 -16.19)"/><path class="cls-1" d="M2253.59,1229.6l21.23-111.23c3.54-17.7,5.56-32.86,7.58-45.5h23.76l-4,30.84h.51c14.16-22.25,34.89-34.38,58.14-34.38,18.71,0,39.94,10.62,39.94,44,0,6.57-1.52,16.68-3,25.28L2380,1230.1h-26.8l17.19-90.5a88.55,88.55,0,0,0,2-20.22c0-15.67-6.07-27.81-24.77-27.81-19.21,0-46.51,23.26-53.59,61.68l-14.16,76.34Z" transform="translate(-9.53 -16.19)"/><path class="cls-1" d="M2577.67,999.56,2543.29,1180c-3,16.18-6.07,34.38-6.57,49.55h-24.77l4-31.35h-.51c-14.16,22.25-33.87,34.89-56.63,34.89-30.34,0-47-24.77-47-57.13,0-55.61,41.46-107.18,97.07-107.18,10.11,0,21.23,2,27.81,5.56l14.16-75.33h26.8Zm-45,97.58c-5.56-3.54-14.66-6.57-25.78-6.57-37.41,0-66.74,39.94-66.74,81.9,0,18.71,6.57,38.42,29.32,38.42,20.73,0,45.5-23.76,52.58-59.15Z" transform="translate(-9.53 -16.19)"/><path class="cls-1" d="M2715.19,1134.55c0,48.54-34.38,98.59-87,98.59-39.44,0-61.18-29.32-61.18-64.71,0-51.57,35.9-99.6,87-99.6C2696.48,1069.33,2715.19,1101.18,2715.19,1134.55Zm-120.33,33.37c0,25.78,14.16,44,36.91,44,31.85,0,55.61-41,55.61-77.35,0-18.2-8.59-44-36.4-44C2617.11,1090.56,2594.36,1131.51,2594.86,1167.92Z" transform="translate(-9.53 -16.19)"/><path class="cls-1" d="M2717.72,1229.6,2739,1118.37c3.54-17.7,5.56-32.86,7.58-45.5h23.76l-4,30.84h.51c14.16-22.25,34.89-34.38,58.14-34.38,18.71,0,39.94,10.62,39.94,44,0,6.57-1.52,16.68-3,25.28l-17.7,91.51h-26.8l17.19-90.5a88.55,88.55,0,0,0,2-20.22c0-15.67-6.07-27.81-24.77-27.81-19.21,0-46.51,23.26-53.59,61.68L2744,1229.6Z" transform="translate(-9.53 -16.19)"/><path class="cls-1" d="M2987.7,1220.5c-11.63,6.57-30.84,12.13-52.08,12.13-41.46,0-59.66-28.31-59.66-62.69,0-47.52,34.89-100.61,85.44-100.61,29.83,0,46,17.7,46,40.45,0,41-46.51,52.08-104.66,51.06-1.52,6.57-.51,21.23,3,29.83,6.07,14.16,18.71,21.23,34.89,21.23,18.71,0,32.36-6.07,42-11.12Zm-29.83-130.44c-25.78,0-45,24.77-51.06,49.55,42,.51,75.33-5.06,75.33-29.32C2982.14,1097.13,2972,1090.06,2957.87,1090.06Z" transform="translate(-9.53 -16.19)"/><path class="cls-1" d="M3006.41,1202.3c7.58,4.55,21.23,9.61,33.87,9.61,18.2,0,29.83-11.63,29.83-25.78,0-12.13-5.56-19.72-21.74-28.82-18.2-10.11-28.31-23.76-28.31-39.94,0-27.81,23.76-48.54,56.63-48.54,14.16,0,26.8,4,32.86,7.58l-7.58,20.22a59.23,59.23,0,0,0-27.3-7.08c-16.18,0-27.81,10.11-27.81,23.76,0,11.12,7.58,18.71,21.23,26.29,17.7,10.11,29.32,23.76,29.32,41,0,32.86-26.8,51.57-60.16,51.57-16.68,0-31.85-5.06-38.93-10.62Z" transform="translate(-9.53 -16.19)"/><path class="cls-1" d="M3110.05,1229.6l30.34-157.24h26.8l-30.34,157.24Zm34.89-200.72c0-10.62,8.09-18.2,17.7-18.2s15.67,7.08,15.67,16.68c-.51,10.62-7.58,18.2-18.2,18.2C3151.51,1045.56,3144.94,1038.49,3144.94,1028.88Z" transform="translate(-9.53 -16.19)"/><path class="cls-1" d="M3272.35,1229.6c0-9.61,1.52-24.27,3.54-40.45h-.51c-17.19,32.36-38.42,44-61.18,44-27.81,0-45-22.25-45-52.08,0-54.6,40.45-112.24,108.7-112.24,15.17,0,31.35,2.53,42,6.07l-15.67,81.9c-5.06,27.3-7.58,55.11-6.57,72.8h-25.28Zm17.7-137a73.58,73.58,0,0,0-18.71-2c-40.45,0-73.82,42.47-73.82,85.95,0,17.7,6.07,34.89,26.8,34.89,22.25,0,49-29.32,56.63-70.78Z" transform="translate(-9.53 -16.19)"/><path class="cls-1" d="M87.67,521.78c42.47-30.84,97.58-37.41,148.14-30.84a179.15,179.15,0,0,1,45.5,12.64c4,12.13,7.08,24.77,10.62,37.41-42.47-19.21-93-23.76-136.51-6.07-32.86,13.15-55.61,43.48-65.73,76.34-14.16,45.5-14.16,94.54-6.57,141.06,5.56,33.87,19.21,69.27,48,90,31.35,21.74,71.79,19.21,107.18,13.65.51-51.57,0-103.14,0-154.2-21.74.51-44-1-65.73,3,3-10.11,1.52-22.75,7.08-31.35,40.45-1,81.4,0,121.85-.51V879.73A395.11,395.11,0,0,1,164,893.89c-47.53-3.54-94.54-27.81-120.33-68.76-28.82-46-36.91-101.62-33.37-154.71C14.36,612.78,41.15,556.16,87.67,521.78Z" transform="translate(-9.53 -16.19)"/><path class="cls-1" d="M1773.79,493c20.73,1,42-1,62.69,1,10.11.51,19.72,9.1,18.71,19.72V887.82c-16.18,0-32.36.51-48.54,0-7.08,0-14.16-5.06-15.17-12.13-1.52-9.61-.51-19.72-.51-29.32V545c0-11.63,1.52-23.76-3-34.38C1784.41,503.58,1778.85,498.52,1773.79,493Z" transform="translate(-9.53 -16.19)"/><path class="cls-1" d="M2880.52,594.58c31.85-7.08,70.28-3,93.53,22.25,20.22,20.22,25.28,50.05,25.78,77.35V888.33c-14.16,0-28.31,1-42.47-.51-12.13-3-17.7-16.18-16.68-27.81V697.22c0-18.71,0-39.44-12.64-54.6-12.64-14.16-33.37-14.66-50.56-12.13-24.27,4-50.05,22.75-50.05,49.55v208.3h-58.14V622.89c1-11.12-6.07-19.72-14.16-26.29,21.74,1,43.48-1,65.22,1.52,4.55,11.12,4,23.26,3.54,34.89C2837,613.79,2857.26,599.13,2880.52,594.58Z" transform="translate(-9.53 -16.19)"/><path class="cls-1" d="M678.19,625.42c20.73-30.84,62.19-39.44,96.06-28.31,2.53,12.64,5.06,25.28,8.09,37.92-27.3-12.64-63.2-9.1-85.44,12.13-16.68,16.68-19.21,41.46-18.71,63.2v178H619.54V626.43c.51-12.13-6.07-22.25-14.66-30.34,19.21,1,38.42,0,57.64.51a16.82,16.82,0,0,1,14.16,6.07C679.2,610.26,678.19,617.84,678.19,625.42Z" transform="translate(-9.53 -16.19)"/><path class="cls-1" d="M2023.55,595.59c34.38-8.6,76.85-4,100.11,25.28,19.72,22.75,22.25,54.6,22.25,83.42v184c-14.16,0-28.31,1-42-.51-11.12-2-17.19-13.65-17.19-24.27-.51-59.66,0-119.82,0-179.48-.51-16.68-3.54-35.39-17.7-46-12.13-9.1-28.31-8.09-42.47-7.58-25.78,2.53-53.09,22.25-53.09,50.05v208.3h-58.14V633.51c1.52-14.16-2.53-29.32-15.67-36.91,20.73,2,42.47-1.52,63.2,2,11.63,7.08,6.07,23.26,7.08,34.38C1983.61,614.81,2001.81,600.14,2023.55,595.59Z" transform="translate(-9.53 -16.19)"/><path class="cls-1" d="M3323.92,622.89c18.2-20.73,47-30.34,74.32-30.34,26.8-.51,56.63,1.52,78.87,18.2,4,10.62,6.07,21.74,8.59,32.86-20.73-16.18-47.53-23.26-73.82-22.25-13.65,1-27.3,5.56-36.4,16.18-10.62,11.63-13.65,29.32-9.1,44.49,6.07,16.18,22.25,24.27,36.91,30.84,28.31,12.64,59.66,23.26,80.39,47.52,17.19,20.22,19.21,49.55,11.12,73.82-7.08,22.25-25.78,39.44-47,48.54-30.34,13.65-65.22,13.15-97.58,7.08-14.16-3.54-29.32-6.57-41-16.18-4-11.12-6.07-22.75-9.1-34.38,32.36,18.71,71.29,33.37,109.21,22.25,28.31-7.58,43-45.5,26.29-69.77-14.66-18.71-38.93-25.28-59.15-35.39-26.29-11.63-54.6-27.3-65.22-56.12C3303.19,674.46,3305.71,643.62,3323.92,622.89Z" transform="translate(-9.53 -16.19)"/><path class="cls-1" d="M796.5,596.1c19.72,1,39.44-.51,59.15,1,8.09.51,16.18,6.57,15.67,15.17.51,51.06,0,101.62,0,152.69,0,20.22-1,41.46,4.55,61.18,3.54,11.63,11.63,22.25,23.76,25.78,23.26,6.57,50.56,2.53,69.26-13.65,10.11-9.1,16.68-22.25,16.18-35.9V596.6h58.14V888.33c-15.17-1-30.84,2-46-2-13.65-5.56-8.09-23.26-9.1-34.38-18.2,28.31-53.09,42.47-85.95,40.45-27.81,1-57.13-11.12-72.8-34.89-16.68-23.76-17.7-54.6-17.19-82.41V622.9C813.69,611.27,805.6,602.17,796.5,596.1Z" transform="translate(-9.53 -16.19)"/><path class="cls-1" d="M3517,596.1c21.23,1,42-.51,63.2.51,8.09,0,13.15,8.09,12.64,15.67V887.82c-14.16,0-28.31.51-43,0-8.09.51-16.68-6.07-15.67-14.66-.51-83.42,0-167.35-.51-250.77C3534.74,610.76,3525.64,602.67,3517,596.1Z" transform="translate(-9.53 -16.19)"/><path class="cls-1" d="M3164.66,861c-19.72-.51-42.47-5.06-53.59-23.26-12.64-20.22-9.61-44.49-9.61-67.24,29.32,5.06,60.16,3,89-3.54,25.78-6.07,51.57-18.71,67.24-41.46,27.81-38.42,17.19-100.61-24.77-124.37-27.81-15.67-61.68-15.17-92.52-11.63-34.89,4-69.77,23.26-84.94,56.12-17.19,33.87-11.63,72.8-12.64,109.21.51,32.36-3,67.24,15.17,96.06,14.66,24.77,44,35.39,71.29,39.94,43.48,7.08,89-3,127.41-24.27,4-12.13,4.55-24.77,7.08-36.91C3234.43,849.4,3200,863,3164.66,861Zm-58.14-204.76c6.07-19.72,24.27-32.86,44-36.4,17.7-3.54,38.42-4.55,52.58,8.6,14.16,14.66,14.66,36.91,12.13,55.61-2,20.22-11.12,41.46-30.34,50.56-25.78,13.15-55.61,11.63-83.42,8.09C3102.47,713.9,3097.41,684.07,3106.51,656.26Z" transform="translate(-9.53 -16.19)"/><path class="cls-1" d="M2723.79,693.68c-6.07-31.35-20.22-62.69-46.51-81.9-28.82-21.23-66.23-24.77-100.61-20.22-22.75,3.54-45,12.64-61.68,28.82-26.29,24.27-37.41,59.66-41.46,94-3.54,33.87-2,69.27,9.1,101.62,8.09,24.27,24.27,46.51,46.51,59.15,26.8,15.17,59.15,19.21,89.49,16.18,34.89-4,67.24-25.28,85.44-55.61C2730.36,793.78,2732.89,741.2,2723.79,693.68Zm-60.16,92c-4,25.28-11.12,52.58-32.36,68.76-12.13,9.61-28.31,9.1-42.47,7.58-20.22-3-35.39-19.21-42.47-37.41-13.15-32.86-11.12-68.76-10.62-103.64,1-23.76,4-48,15.17-69.27,6.07-12.13,16.18-22.25,29.32-26.8,20.73-7.58,47-4.55,62.19,12.64s19.72,41,22.25,63.2C2666.15,728.56,2666.65,757.38,2663.62,785.69Z" transform="translate(-9.53 -16.19)"/><path class="cls-1" d="M1299,492.45c-15.67-.51-31.85,0-47.53,0,7.58,8.09,16.18,16.68,16.18,28.82,2.53,33.37.51,66.74,1.52,100.61-15.67-20.73-42.47-31.85-68.25-31.35-29.32-1.52-59.66,9.61-79.38,31.85-23.26,26.29-33.87,61.18-37.92,95.56-3.54,46-.51,95.56,26.29,134.49,19.21,28.31,53.59,42,87,40.45,27.81.51,53.09-13.65,73.31-32.36,1,9.1-2.53,22.25,7.58,27.3,16.18,1.52,32.86.51,49,1V521.78C1328.88,505.09,1313.71,492.45,1299,492.45Zm-48,352.9c-20.73,14.16-51.06,18.2-71.79,2-17.19-14.16-24.77-36.91-29.32-58.14-6.07-32.86-5.56-66.23,0-99.09,4.55-23.76,14.16-51.57,38.42-62.19,23.76-8.6,55.11-3.54,69.77,18.71,10.62,17.19,9.1,37.92,10.62,57.64.51,38.42,0,76.85,0,115.27C1269.72,831.2,1259.11,838.78,1251,845.35Z" transform="translate(-9.53 -16.19)"/><path class="cls-1" d="M2432.06,518.24c.51-14.16-13.65-24.77-26.8-25.28-16.18-1-32.36,0-48.54-.51,8.59,8.6,17.19,19.72,16.68,32.36.51,32.36-.51,64.71.51,96.57-15.17-20.73-41-31.35-66.23-31.35-29.32-1.52-60.16,8.6-79.88,30.84-28.31,30.34-37.41,73.31-39.94,113.76-1,41,4.55,84.43,28.82,118.31,19.21,26.8,52.08,41,84.94,39.44,28.31,1,54.6-13.65,74.83-32.36,1.52,9.1-3.54,24.77,9.1,27.3,15.67,1.52,31.35,0,47,.51Q2431.81,703.54,2432.06,518.24ZM2335,855c-21.23,6.57-46.51,1-59.66-17.19-18.2-24.77-22.75-56.63-24.27-86.46-.51-36.4.51-75.33,21.23-106.68,17.19-25.78,56.12-26.8,79.88-9.61,16.68,12.64,20.22,35.39,20.73,55.11.51,46,0,92,0,138.53C2363.3,840.3,2351.17,851.93,2335,855Z" transform="translate(-9.53 -16.19)"/><path class="cls-1" d="M1598.86,687.1c0-21.74-4-44.49-18.2-61.68-15.67-20.22-41-30.34-65.73-34.38-38.42-6.07-79.88-1-113.76,19.21-3.54,11.63-4.55,24.27-6.57,36.4,24.27-17.19,53.59-27.81,83.42-26.29,20.22.51,44.49,5.56,55.11,24.77,10.11,20.22,6.07,43.48,7.08,65.22-39.94-4-82.41-3-119.32,14.66-26.29,12.64-47.53,37.92-51.57,67.24-4,28.31,4,59.66,25.78,79.38,17.7,16.18,42.47,22.25,66.23,21.23,31.85,0,64.21-14.16,82.41-41,.51,12.13-4.55,31.35,11.63,35.9,14.66,1.52,28.82.51,43.48,1C1599.36,821.08,1599.36,754.35,1598.86,687.1Zm-58.65,118.31c0,15.17-10.11,28.31-23.26,35.39-18.2,11.12-42.47,15.17-62.19,5.06-34.89-17.7-34.89-73.82-4-95,25.28-19.21,59.15-17.7,89-13.65C1540.21,759.91,1540.72,782.66,1540.21,805.41Z" transform="translate(-9.53 -16.19)"/><path class="cls-1" d="M565.44,641.6c-9.1-21.23-28.31-36.91-50.05-44.49-45.5-15.67-97.58-10.62-140,12.13-2,12.13-4,24.27-6.07,36.91,24.27-16.68,53.09-27.81,82.92-26.29,20.73.51,45,5.06,56.12,24.77,10.11,20.22,6.07,43.48,6.57,65.22-47.53-4.55-101.12-3-140.55,28.31s-41,96.06-6.57,131.45c22.75,22.75,57.64,25.78,88,21.23a96.71,96.71,0,0,0,62.69-38.93c1,12.13-4,31.85,12.13,35.9,14.16,2,28.82.51,43,1V697.72C573.53,678.51,574,658.79,565.44,641.6ZM514.88,798.84c1,13.15-3.54,26.8-13.65,35.39C479,853.44,441.57,860,418.82,838.78c-22.75-22.75-21.23-65.73,4.55-85.95,7.08-6.07,15.17-9.61,23.26-12.64,21.74-7.08,45-6.07,67.24-2.53C515.9,757.89,514.38,778.62,514.88,798.84Z" transform="translate(-9.53 -16.19)"/><path class="cls-1" d="M3860.34,687.1c0-23.26-4.55-47.52-21.23-64.71-23.76-27.3-61.68-33.37-96.06-33.87-27.81,1.52-56.63,6.57-80.39,21.74-5.06,11.12-4.55,24.27-7.08,36.4,26.29-22.75,63.2-29.32,97.07-25.28,16.18,2,33.87,8.09,42,23.76,10.62,20.22,5.56,43.48,6.57,65.22-47.53-4.55-100.61-3-140,27.81-39.94,31.35-42.47,97.07-7.08,132.46,23.76,23.26,60.67,26.29,92,19.72,23.76-4.55,44.49-18.71,58.65-37.92,1,11.12-4.55,29.32,9.1,34.89,14.66,3.54,30.34,1,45.5,1.52C3860.34,821.08,3860.34,753.84,3860.34,687.1Zm-58.65,118.81c0,17.7-14.16,31.85-29.32,38.42-21.74,11.63-52.08,10.62-69.26-8.09-13.65-15.17-14.66-36.91-11.12-55.61,4.55-18.2,20.73-31.85,37.92-38.42,22.75-9.1,48-7.08,72.3-4C3801.69,759.91,3802.2,783.17,3801.69,805.92Z" transform="translate(-9.53 -16.19)"/><path class="cls-2" d="M3464,16.19h275.54q78.11.76,156.23,6.07c32.36,2.53,64.72,6.07,97.07,11.12,31.35,4.55,62.69,12.64,93,21.74,81.9,25.28,160.27,62.69,229.54,113.76,19.72,15.17,40.45,29.32,60.67,44l248.75,179c-14.16,13.15-30.84,24.77-50.05,28.31-16.18,2-31.85-3.54-46.51-10.62-13.15-6.07-24.77-15.17-36.91-23.76-45.5-32.86-91.51-65.22-137-98.08-39.94-28.31-78.87-57.13-118.81-85.44-52.08-35.9-104.66-70.78-160.78-100.11-58.14-30.34-121.85-47-186.06-57.64A1101.68,1101.68,0,0,0,3693,29.84H3490.25c-6.07,0-12.13,0-18.2-.51C3469,24.79,3466.49,20.74,3464,16.19Z" transform="translate(-9.53 -16.19)"/><path class="cls-2" d="M3523.62,119.84h20.73c31.85-1,63.7,1,95.56-.51,88.48,1,177-1.52,264.93,5.06,62.69,5.06,126.4,11.63,186.05,32.86,60.67,21.23,118.31,52.08,171.39,88,39.94,27.81,78.87,56.12,118.31,84.43,55.11,39.44,110.22,78.87,165.33,118.81-15.67,15.17-35.39,28.31-57.64,29.32-21.74-.51-41.46-10.11-59.15-21.74-46.51-32.86-92.52-66.23-139-99.6-43-30.84-85.44-62.19-129.94-91-44.49-29.32-90-57.13-138-80.39-64.72-29.83-135.5-43.48-206.28-49.55-32.36-2.53-64.72-3.54-97.07-3.54H3530.7C3528.68,128.43,3526.15,124.39,3523.62,119.84Z" transform="translate(-9.53 -16.19)"/><path class="cls-2" d="M4455.92,214.38c5.06,6.57,10.62,13.65,18.2,18.2,12.64,9.1,28.31,11.12,43.48,13.65,23.26,3.54,46.51,2,69.77,2.53h97.07c8.59,0,17.19,4,21.23,11.63,3.54,6.07,6.57,12.13,7.58,19.21-3.54,1.52-6.57,2.53-10.62,2-22.25-2.53-45-4.55-67.75-6.07l25.79,21.23c11.12-3.54,22.75-6.57,33.87-10.11,5.06-1.52,10.62-3.54,15.67-3,24.27,1.52,49,4.55,72.8,10.11,12.64,3,25.28,9.61,31.85,21.23,7.58,13.65,7.58,29.83,5.56,45-11.12-8.6-23.76-17.7-38.42-18.2a342.38,342.38,0,0,0-39.44,1c-14.16,1-28.82,2-42.47,6.57-15.67,5.06-30.34,12.13-45,19.21a33.18,33.18,0,0,1-32.86-3c-46-32.86-92-65.73-137.52-99.09-11.63-9.1-23.26-19.72-29.32-33.87A31.89,31.89,0,0,1,4455.92,214.38Z" transform="translate(-9.53 -16.19)"/><path class="cls-3" d="M3583.79,223.48h217.4c53.09.51,106.17,2.53,158.75,8.6a555,555,0,0,1,253.8,93.53c83.93,60.16,168.36,120.83,252.29,181.51-15.67,13.65-33.37,27.3-54.6,29.83-21.74.51-42.47-9.1-60.16-20.22-45.5-32.86-91.51-65.22-137-98.08-45-33.37-91-65.73-139-95-24.77-14.66-49-29.83-75.33-42-55.61-24.77-116.79-36.91-177.46-42.47-22.75-2.53-46-2.53-69.26-3-16.68,1-33.87-1-50.56.51-12.13,0-24.27.51-36.4-.51-11.12,1-22.25-.51-33.87,0-13.65,0-27.3.51-41-.51A60.81,60.81,0,0,1,3583.79,223.48Z" transform="translate(-9.53 -16.19)"/><path class="cls-3" d="M3643.45,327.63h147.63c65.22-.51,130.95,1,195.66,11.63,57.13,9.61,111.23,31.85,160.78,60.67,22.75,13.15,44,28.31,65.22,43,47.52,33.37,94.54,67.24,141.56,100.61,10.11,7.58,20.73,14.66,30.84,22.25-12.13,11.12-25.79,21.23-41.46,26.8-16.18,6.07-34.38,2-49.55-4.55-18.2-7.58-33.87-20.22-50.05-31.85-44.49-31.85-88.48-63.7-133-95-50.05-34.38-101.62-67.24-158.75-89.49-53.59-20.73-111.23-32.36-168.87-31.85-44.49,0-89,.51-133,0C3648,336.23,3646,331.68,3643.45,327.63Z" transform="translate(-9.53 -16.19)"/><path class="cls-3" d="M3703.1,430.77h115.27c51.06-.51,101.62,2,152.18,10.11,58.65,9.61,115.78,30.34,165.33,63.2C4193,544,4249.64,584.47,4306.27,624.41c-14.16,12.13-29.83,23.76-48,28.31-23.26,3.54-46.51-5.06-65.73-17.7-24.77-17.7-49-35.39-73.82-53.09-39.44-30.34-79.38-60.16-121.34-87.47-26.8-17.19-57.13-28.82-87.47-36.91-30.34-7.58-61.68-12.64-92.52-13.65H3711.7A144.28,144.28,0,0,1,3703.1,430.77Z" transform="translate(-9.53 -16.19)"/><polygon class="cls-4" points="5320.04 424.69 5315.99 423.18 5317.01 421.15 5327.62 425.7 5326.61 427.73 5322.57 426.21 5317.51 437.33 5314.98 435.81 5320.04 424.69"/><polygon class="cls-4" points="5329.65 426.21 5333.69 428.74 5332.17 439.86 5332.17 439.86 5340.26 431.77 5344.31 433.79 5337.73 446.94 5335.21 445.42 5340.77 434.8 5340.77 434.8 5331.67 443.9 5329.14 442.39 5331.16 429.75 5330.66 430.25 5325.6 440.87 5323.07 439.86 5329.65 426.21"/><path class="cls-4" d="M5370,556.66h0a305.52,305.52,0,0,1,88,195.16c11.63,168.87-115.27,315-284.14,327.11a305.61,305.61,0,0,1-211.33-65.22l-.51.51c60.16,56.12,142.07,88,230.55,81.4C5361.42,1084,5488.32,937.37,5476.7,768.5c-5.56-85.95-46-160.27-106.68-211.84Z" transform="translate(-9.53 -16.19)"/><path class="cls-4" d="M4827,905c-9.61,5.56-12.13,13.65-7.08,26.29,4.55,11.63,11.63,16.68,19.72,13.65,6.07-2.53,7.08-7.58,4.55-21.74l-1-5.56c-2.53-13.65-3-19.72-1.52-25.28,1.52-6.57,5.56-10.62,11.12-13.15,13.65-5.56,26.8,3,34.88,22.75,8.59,21.23,4,36.91-12.64,44l-4-10.11c11.63-5.06,14.16-15.67,8.09-30.84-5.06-12.64-13.15-18.2-21.23-14.66-6.57,2.53-8.09,9.1-6.07,23.26l1,6.07,1,5.06c2,10.62,2,14.16,1,18.71a18.13,18.13,0,0,1-10.62,12.13c-13.15,5.06-25.28-2.53-32.36-20.22-7.58-19.21-3.54-33.37,11.12-39.94l4,9.61Z" transform="translate(-9.53 -16.19)"/><polygon class="cls-4" points="4808.89 778.1 4855.41 739.16 4855.91 753.32 4816.48 786.18 4829.12 800.34 4856.92 799.33 4856.92 810.96 4778.05 812.48 4778.05 801.35 4808.89 800.34 4813.44 800.34 4817.49 800.34 4814.45 797.81 4811.93 794.78 4777.04 757.37 4776.53 742.2 4808.89 778.1"/><path class="cls-4" d="M4853.82,671.94l30.34,10.62-3.54,10.62-30.34-10.62-54.6,16.68,4.55-13.15,33.87-9.61,4-1c1.52-.51,2.53-.51,5.56-1.52-2.53-3-3.54-4-6.07-7.58l-20.73-28.31,4.55-12.64,32.36,46.51Z" transform="translate(-9.53 -16.19)"/><polygon class="cls-4" points="4897.37 510.64 4880.69 531.37 4930.74 571.82 4918.6 586.48 4869.06 546.03 4852.37 566.25 4840.74 556.65 4886.25 501.54 4897.37 510.64"/><polygon class="cls-4" points="5004.05 435.81 4964.11 459.07 4972.7 473.73 5009.61 452.5 5016.18 464.13 4979.78 485.36 4989.39 502.05 5029.83 478.28 5037.42 490.92 4980.29 524.29 4940.34 456.04 4996.97 423.18 5004.05 435.81"/><path class="cls-4" d="M5166.77,482.85,5146,484.36l-10.11-17.19-31.85,5.06-4.55,19.21-19.72,5.06L5100.54,410l19.21-3,47,75.84Zm-45.5-41a103.46,103.46,0,0,1-8.59-16.18c-.51,5.56-1.52,9.61-3.54,18.2l-3.54,15.17,22.75-3.54-7.08-13.65Z" transform="translate(-9.53 -16.19)"/><path class="cls-4" d="M5293.67,508.13,5277,501.55l6.07-23.26a98,98,0,0,1,3-11.12c1.52-5.06,2.53-8.6,3.54-11.63s2-6.57,3-10.11l2-5.56c-4.55,8.09-6.57,10.62-10.62,17.19-2,3-3.54,5.06-5.06,7.08l-22.25,31.35-14.16-3.54L5238.06,454c-.51-2-.51-4.55-1-8.6a102.74,102.74,0,0,1-.51-11.12v-9.61l-2,9.61c-2.53,10.62-3.54,15.17-6.57,27.3l-6.57,25.28-17.7-2.53L5223.4,407l26.8,5.06,3.54,36.4c1,8.6,1,15.67.51,25.78a111.39,111.39,0,0,1,7.58-13.15c2.53-3.54,4-6.57,6.07-9.1l20.73-29.83,25.28,8.6-20.22,77.35Z" transform="translate(-9.53 -16.19)"/><path class="cls-4" d="M5142.5,660.31c-9.61,8.6-28.82,26.8-47,44L5074.76,724a290.5,290.5,0,0,0-51.06-4.55c-38.42,0-73.82,10.62-90,26.8-6.07,6.07-9.1,13.15-9.1,20.22.51,18.71,21.74,27.81,28.31,30.34,34.38,12.64,62.69,9.1,93-12.13,16.68-11.63,36.91-30.34,52.08-45.5q18.2,4.55,41,10.62l13.65,4c-17.7,17.19-35.9,35.9-52.58,50.56l-1.52,1c-23.26,20.73-40.45,35.9-64.72,41-17.19,4-29.32,0-33.37-2.53-.51,0-1,1-1,1,14.16,11.63,27.81,18.2,50.56,16.18,22.25-2,47.52-15.67,73.31-39.94l34.88-34.38,24.77-24.27,49.55,14.66a1.76,1.76,0,0,1,1,.51c-.51,0-30.84,29.83-30.84,29.83l-26.29,26.29c-27.3,26.29-42,39.94-57.64,51.06-26.29,18.71-48.54,28.31-68.25,29.32-10.11.51-24.77,0-37.41-7.08a5.09,5.09,0,0,0-1.52.51c13.15,11.63,29.83,25.28,58.14,24.27,31.85-1,60.16-16.18,104.15-56.63,20.22-18.2,39.94-38.93,57.64-57.13l32.86-32.86c21.74,4.55,41,6.57,62.19,6.07,30.84-.51,57.64-15.67,57.64-32.36.51-12.64-10.11-19.21-16.18-23.26-5.06-3.54-19.21-11.12-37.92-11.12-23.26,0-47.52,10.11-71.79,30.34l-16.18,14.66L5236,768l-45.5-12.64c13.15-12.64,24.77-23.26,34.88-32.36,24.77-22.25,52.58-31.35,68.25-32.36,11.63-.51,32.36.51,40.45,6.07.51,0,1-1,1-1-22.25-19.21-42-21.74-57.64-21.74s-41,5.06-71.79,28.82c-12.64,9.61-28.82,26.29-46,43.48l-23.26-7.08-5.56-1.52-24.27-7.08c.51,0,13.65-13.15,13.65-13.15,16.18-16.18,31.85-30.84,43.48-41,43.48-36.91,71.29-41.46,90-41.46,20.73,0,37.41,4,49.55,12.64.51,0,1-1,1-1-24.27-22.25-42-29.32-72.3-29.32-26.29.5-58.14,15.67-89.49,43ZM4971.11,790.75c-14.16-1-21.23-6.57-21.23-17.7,0-1.52,1-35.9,80.39-39.94a210.48,210.48,0,0,1,34.38,1c-.51,0-9.1,7.58-9.1,7.58l-5.06,4.55c-18.71,17.7-50.56,46.51-79.38,44.49Zm320.54-27.81c22.75-15.17,42-23.76,53.59-23.26,7.08.51,15.17,2.53,15.17,11.12s-8.59,16.18-24.77,22.25c-14.66,5.06-36.91,6.57-61.18,3.54a196.56,196.56,0,0,1,17.19-13.65Z" transform="translate(-9.53 -16.19)"/></svg>